# Blender v2.78 (sub 0) OBJ File: 'rocks.blend'
# www.blender.org
mtllib icecream.mtl
o Cone_Cone.003
v 189.166763 0.550079 0.149393
v 188.244308 1.673458 0.742425
v 189.002045 1.674048 -1.190294
v 189.757065 1.830960 0.888038
v 187.986343 1.838241 0.728280
v 187.703201 1.844988 -0.506993
v 189.212830 1.854613 -1.331734
v 190.125732 1.834462 -0.573814
v 189.608490 3.896865 -1.039274
v 190.044418 3.955841 0.178591
v 189.011597 4.049029 0.961601
v 188.090836 4.056764 0.337637
v 188.244705 3.896489 -1.014338
v 188.127350 4.299239 -0.158895
v 187.953247 4.016589 -0.171758
v 188.949448 4.380339 0.771715
v 189.444092 4.673635 0.058437
v 189.806335 4.245305 0.347935
v 189.233292 4.569108 -0.593331
v 189.703232 4.151412 -0.637689
v 189.900589 3.886468 -0.670316
v 188.651550 4.701823 -0.266740
v 188.649719 4.154637 -0.976229
v 188.683640 3.886461 -1.176515
v 189.267471 2.935138 -1.303266
v 188.505829 2.891396 -1.344475
v 187.926453 2.927640 -0.586447
v 188.131836 2.933023 0.700220
v 189.389603 2.953724 1.090267
v 190.038559 2.887936 0.673375
v 190.202759 2.930971 -0.147348
v 190.008072 2.884714 -0.887922
v 188.682526 2.639453 -1.480318
v 189.417633 2.208130 -1.437126
v 189.644196 1.649391 -0.795725
v 187.632812 2.334270 -0.779531
v 188.553574 1.735179 -1.234583
v 188.396454 1.611965 -1.005078
v 188.219818 2.682371 1.143765
v 187.798355 1.722663 -0.192449
v 187.972382 1.622937 0.006173
v 189.974701 2.639453 0.888635
v 188.593628 1.745988 1.062584
v 188.852066 1.608876 0.954739
v 190.189194 2.639449 -0.765252
v 190.372650 2.210371 -0.051467
v 189.825500 1.631963 0.346679
v 189.468338 0.797913 0.201193
v 189.589157 0.910177 -0.172691
v 189.503479 0.914285 -0.440273
v 189.348297 0.639731 -0.331540
v 189.029999 0.864843 -0.737025
v 188.875687 0.666668 -0.594687
v 189.234299 0.844365 0.419703
v 188.649567 0.670151 0.296103
v 188.721161 0.470349 -0.060029
v 188.424469 0.812153 -0.278441
v 188.429169 0.742872 0.062828
v 188.490128 0.941148 0.377169
v 188.166595 1.195309 -0.007480
v 189.778015 2.859823 -1.206486
v 190.267288 2.859828 0.361232
v 188.900772 2.946545 1.335788
v 187.616684 2.946105 0.315658
v 188.143005 2.859388 -1.187843
v 189.935318 3.528821 -0.877973
v 189.958237 3.615539 0.618403
v 188.772583 3.613334 1.047008
v 187.812805 3.559149 0.147307
v 188.496887 3.528816 -1.273719
v 188.421631 4.635412 -0.017385
v 190.094177 1.650346 -0.026604
v 189.243729 1.650100 1.037003
v 187.641541 2.827466 -0.351786
v 188.031082 1.650099 -0.838541
v 189.235489 3.528816 -1.349442
v 190.235580 3.528822 -0.198915
v 187.857040 3.561351 -0.744767
v 189.255508 4.633801 0.450723
v 188.002548 4.119534 -0.548816
v 188.578079 4.247457 0.759576
v 189.612793 4.102147 0.747877
v 189.981064 4.104352 -0.276576
v 188.383179 4.530367 -0.450577
v 189.082565 4.087008 -1.145914
v 190.059799 2.256029 -1.002497
v 188.834824 2.930964 -1.432459
v 188.220917 2.234793 -1.306763
v 187.542618 2.256379 0.083951
v 188.575424 2.265738 1.297948
v 189.823364 2.930966 0.939428
v 190.158051 2.256030 0.691847
v 190.190735 2.930964 -0.605632
v 187.799133 2.255589 0.791552
v 189.438553 2.237999 1.271220
v 188.947845 0.665934 0.380496
v 189.562698 1.266451 -0.643371
v 190.237625 3.389303 -0.355569
v 189.508102 3.573282 1.089980
v 188.030045 3.579303 0.816424
v 187.774597 3.414974 -0.590272
v 189.087143 3.389294 -1.399783
v 188.830460 4.746224 0.315198
v 188.829788 0.457224 -0.310754
v 188.303146 1.121646 0.299204
v 188.900055 1.151659 0.683920
v 189.122803 0.482076 -0.359129
v 188.528503 1.148188 -0.778428
v 189.405319 0.633317 -0.035761
v 189.271530 0.986454 -0.722103
v 189.680099 1.155721 0.186279
v 190.357666 2.332713 0.170593
v 190.294388 2.248567 -0.597846
v 189.014755 2.253824 1.365505
v 189.855362 2.248430 1.046746
v 188.143417 2.263596 1.117345
v 187.552658 2.257820 -0.463434
v 189.625458 2.332714 -1.353053
v 188.876617 2.253716 -1.506381
v 189.522003 3.592926 -1.210919
v 190.184937 3.602565 0.116129
v 188.063950 3.610999 -0.981077
v 188.977509 4.431892 -0.864050
v 189.678406 4.454278 -0.294412
v 188.896393 2.299393 -1.576426
v 189.862442 2.299393 -1.224814
v 190.376465 2.299393 -0.334500
v 190.197937 2.299393 0.677927
v 189.410416 2.299393 1.338742
v 188.382370 2.299393 1.338742
v 187.594849 2.299393 0.677927
v 187.416321 2.299393 -0.334500
v 187.930344 2.299393 -1.224814
v 189.995895 2.299393 -1.383854
v 188.896393 2.299393 -1.784039
v 190.580917 2.299393 -0.370552
v 190.377747 2.299393 0.781733
v 189.481430 2.299393 1.533834
v 188.311356 2.299393 1.533834
v 187.415039 2.299393 0.781733
v 187.211868 2.299393 -0.370552
v 187.796890 2.299393 -1.383854
v 189.315948 0.353672 -0.573533
v 188.896393 0.353672 -0.726239
v 189.539185 0.353672 -0.186867
v 189.461655 0.353672 0.252833
v 189.119629 0.353672 0.539827
v 188.673157 0.353672 0.539827
v 188.331131 0.353672 0.252833
v 188.253601 0.353672 -0.186867
v 188.476837 0.353672 -0.573533
v 188.896393 0.166888 -0.930306
v 189.447128 0.166888 -0.729857
v 189.740158 0.166888 -0.222303
v 189.638382 0.166888 0.354867
v 189.189423 0.166888 0.731588
v 188.603363 0.166888 0.731587
v 188.154404 0.166888 0.354867
v 188.052628 0.166888 -0.222303
v 188.345657 0.166888 -0.729857
v 188.896393 1.027391 -1.206228
v 189.624481 1.027391 -0.941226
v 190.011887 1.027391 -0.270216
v 189.877350 1.027391 0.492828
v 189.283798 1.027391 0.990870
v 188.508987 1.027391 0.990869
v 187.915436 1.027391 0.492828
v 187.780899 1.027391 -0.270216
v 188.168304 1.027391 -0.941225
v 188.896393 1.149019 -1.495133
v 189.810181 1.149018 -1.162540
v 190.296402 1.149018 -0.320384
v 190.127548 1.149018 0.637281
v 189.382614 1.149018 1.262352
v 188.410172 1.149018 1.262352
v 187.665237 1.149018 0.637280
v 187.496384 1.149018 -0.320384
v 187.982605 1.149018 -1.162540
vn 0.3329 -0.2297 -0.9146
vn 0.8429 -0.2297 -0.4866
vn 0.9585 -0.2297 0.1690
vn 0.6256 -0.2297 0.7456
vn -0.0000 -0.2297 0.9733
vn -0.6256 -0.2297 0.7456
vn -0.9585 -0.2297 0.1690
vn 0.9110 0.3798 -0.1606
vn -0.8429 -0.2297 -0.4866
vn -0.3329 -0.2297 -0.9146
vn 0.0000 1.0000 0.0000
vn -0.5946 0.3798 -0.7086
vn -0.3164 0.3798 0.8693
vn 0.8011 0.3798 0.4625
vn 0.0000 0.3798 -0.9251
vn -0.8011 0.3798 0.4625
vn 0.3164 0.3798 0.8693
vn 0.5946 0.3798 -0.7086
vn -0.9110 0.3798 -0.1606
vn 0.0000 -1.0000 -0.0000
vn -0.3275 -0.2885 -0.8997
vn -0.8292 -0.2885 -0.4787
vn -0.9429 -0.2885 0.1663
vn -0.6155 -0.2885 0.7335
vn -0.0000 -0.2885 0.9575
vn 0.6155 -0.2885 0.7335
vn 0.9429 -0.2885 0.1663
vn 0.8292 -0.2885 -0.4787
vn 0.3275 -0.2885 -0.8997
vn -0.1398 -0.9126 -0.3842
vn -0.3541 -0.9126 -0.2044
vn -0.4026 -0.9126 0.0710
vn -0.2628 -0.9126 0.3132
vn -0.0000 -0.9126 0.4089
vn 0.2628 -0.9126 0.3132
vn 0.4026 -0.9126 0.0710
vn 0.3541 -0.9126 -0.2044
vn 0.1398 -0.9126 -0.3842
vn -0.0355 -0.9065 0.4207
vn 0.3822 -0.5090 -0.7712
vn -0.8806 -0.4661 0.0852
vn -0.1955 -0.4530 -0.8698
vn 0.1937 0.9623 0.1908
vn -0.0333 0.9038 -0.4266
vn -0.4428 0.8796 -0.1740
vn -0.7699 -0.2045 -0.6045
vn -0.6636 0.3849 -0.6415
vn -0.8405 0.3830 0.3832
vn 0.9835 -0.1286 0.1275
vn 0.4262 -0.1302 -0.8952
vn 0.5618 -0.4846 -0.6705
vn 0.1146 -0.9867 0.1152
vn -0.9441 0.2817 -0.1713
vn -0.8997 -0.4131 0.1406
vn 0.8046 -0.4955 0.3272
vn 0.6084 -0.3300 0.7218
vn 0.8560 -0.5014 0.1261
vn 0.9007 -0.3205 -0.2933
vn 0.4957 -0.5988 -0.6291
vn 0.5640 -0.5594 -0.6074
vn 0.1996 -0.5049 0.8398
vn -0.7065 -0.5287 0.4705
vn 0.5788 -0.8052 -0.1290
vn -0.6853 -0.4991 0.5303
vn 0.3890 -0.9169 0.0890
vn 0.3138 -0.4473 -0.8375
vn -0.6847 0.1412 0.7150
vn 0.5461 -0.4070 0.7322
vn 0.0863 -0.0859 -0.9926
vn 0.4152 -0.6989 0.5824
vn 0.7570 -0.6225 0.1983
vn -0.2398 -0.5895 0.7714
vn -0.4840 -0.7142 0.5056
vn -0.6669 -0.7281 -0.1584
vn -0.3130 -0.5755 0.7555
vn -0.9102 -0.3020 -0.2835
vn 0.8875 -0.3768 -0.2652
vn 0.1505 -0.7125 -0.6853
vn -0.2295 -0.5460 -0.8057
vn 0.7123 -0.6766 -0.1866
vn 0.4297 -0.6099 -0.6659
vn 0.4718 0.3279 -0.8184
vn 0.7747 0.5567 -0.2997
vn 0.6949 0.4187 0.5847
vn 0.3701 0.6529 -0.6609
vn 0.9215 0.3305 0.2040
vn 0.7699 0.6340 0.0723
vn 0.1143 0.3682 0.9227
vn -0.2933 0.3363 0.8949
vn -0.7688 0.4990 0.4000
vn 0.2249 0.5862 0.7783
vn -0.8629 0.5026 -0.0535
vn -0.6385 0.3229 -0.6986
vn -0.6163 0.6743 0.4069
vn -0.0464 0.5544 -0.8310
vn -0.7237 0.6838 -0.0930
vn -0.5275 0.6260 -0.5744
vn -0.7245 0.5714 -0.3855
vn -0.7457 -0.4815 0.4606
vn -0.6506 0.2708 0.7095
vn -0.9712 0.2090 0.1141
vn -0.7000 0.6607 0.2711
vn -0.1383 0.7549 0.6411
vn -0.2600 0.3487 0.9004
vn 0.5716 0.6950 0.4362
vn 0.3822 0.5124 0.7690
vn 0.0962 0.9841 -0.1492
vn 0.8733 0.1307 0.4694
vn 0.7371 0.6719 0.0718
vn 0.4073 0.8720 -0.2716
vn 0.5997 0.6211 -0.5046
vn 0.7778 0.6261 -0.0552
vn 0.7706 -0.1679 -0.6148
vn 0.4368 0.5657 -0.6994
vn 0.8255 0.2347 -0.5132
vn 0.5087 0.6679 -0.5433
vn -0.2987 0.6397 -0.7082
vn -0.2028 0.8461 -0.4930
vn -0.2685 0.9633 0.0090
vn 0.1886 0.6272 -0.7557
vn -0.3859 -0.2255 -0.8945
vn -0.2317 0.2358 -0.9438
vn -0.3364 0.6311 -0.6990
vn -0.0715 -0.2344 -0.9695
vn 0.0352 -0.6901 -0.7229
vn -0.5116 -0.6353 -0.5785
vn 0.4758 0.3495 -0.8071
vn 0.6807 0.6245 -0.3831
vn -0.5274 0.1022 -0.8435
vn 0.2011 0.6897 -0.6956
vn -0.1962 -0.3793 -0.9042
vn -0.9515 -0.2971 -0.0796
vn -0.6686 -0.7266 -0.1583
vn -0.8303 -0.4795 0.2840
vn -0.4251 -0.2246 0.8768
vn -0.2386 0.6493 -0.7221
vn -0.5388 0.7785 -0.3218
vn -0.4688 -0.6425 0.6061
vn -0.0750 -0.3959 0.9152
vn 0.6067 -0.1157 0.7865
vn -0.7486 0.6629 -0.0120
vn -0.4776 0.7209 0.5021
vn 0.3591 -0.6210 0.6967
vn 0.8179 -0.4316 0.3803
vn 0.1025 0.3160 0.9432
vn -0.3128 0.5939 0.7412
vn 0.9117 0.1197 0.3930
vn 0.2714 0.6840 0.6771
vn 0.6721 -0.4180 0.6112
vn 0.8994 -0.2357 -0.3682
vn 0.7061 -0.6835 -0.1852
vn 0.4369 -0.6111 -0.6600
vn 0.9165 0.3450 0.2025
vn 0.5967 0.6095 0.5219
vn 0.6505 0.1033 -0.7524
vn 0.7119 0.7021 -0.0187
vn 0.8058 -0.3726 -0.4604
vn 0.2664 0.4696 -0.8417
vn -0.2117 -0.0405 -0.9765
vn -0.3852 0.4643 -0.7975
vn 0.5052 -0.6846 -0.5255
vn 0.7455 -0.3773 -0.5494
vn 0.0214 -0.7501 -0.6610
vn 0.9760 -0.1782 -0.1253
vn -0.8979 0.4264 -0.1093
vn 0.7709 0.4541 -0.4466
vn -0.4893 0.5763 -0.6545
vn -0.6700 -0.5540 -0.4941
vn -0.6230 -0.5015 -0.6003
vn -0.3213 -0.7250 -0.6092
vn -0.2989 -0.4863 -0.8211
vn 0.1639 -0.2071 -0.9645
vn -0.4564 0.0271 0.8894
vn -0.3797 0.2507 -0.8905
vn -0.7900 0.5418 0.2870
vn -0.5664 -0.6983 0.4376
vn -0.4297 0.6587 0.6177
vn -0.7968 -0.5310 0.2883
vn -0.5704 -0.8165 0.0898
vn 0.1610 0.5836 0.7960
vn -0.8947 0.4325 -0.1117
vn 0.7163 0.0624 0.6950
vn 0.7055 0.5311 0.4692
vn 0.2534 -0.6128 0.7485
vn 0.1530 -0.5967 0.7877
vn -0.1217 -0.7451 0.6557
vn -0.2388 -0.5133 0.8243
vn -0.6040 -0.3083 0.7349
vn 0.8818 0.4715 -0.0042
vn -0.2222 0.2116 0.9518
vn 0.9004 0.0576 -0.4311
vn 0.6644 0.5352 -0.5216
vn 0.6543 -0.6792 0.3324
vn 0.6928 -0.4111 0.5925
vn 0.6663 -0.7312 -0.1465
vn 0.4449 -0.2544 0.8587
vn 0.3879 -0.6702 0.6327
vn 0.7711 0.2855 0.5691
vn -0.7718 -0.4417 -0.4574
vn 0.5501 -0.7473 0.3728
vn 0.8538 -0.5055 0.1241
vn 0.7459 -0.6180 -0.2483
vn 0.8271 -0.5353 -0.1711
vn 0.3523 -0.6129 -0.7073
vn 0.1900 -0.6661 -0.7213
vn -0.0305 -0.8020 -0.5966
vn -0.1935 -0.4685 -0.8620
vn -0.5773 -0.6097 -0.5431
vn -0.8764 -0.3890 -0.2840
vn -0.6798 -0.7093 -0.1866
vn -0.2376 -0.5314 0.8131
vn -0.1432 -0.8751 0.4622
vn -0.7512 -0.6344 0.1821
vn -0.5763 -0.7567 0.3086
vn -0.9560 -0.2897 -0.0456
vn -0.6869 -0.5472 0.4784
vn -0.3691 -0.4588 0.8082
usemtl Material.009
s off
f 170//1 135//1 134//1 171//1
f 171//2 134//2 136//2 172//2
f 172//3 136//3 137//3 173//3
f 173//4 137//4 138//4 174//4
f 174//5 138//5 139//5 175//5
f 175//6 139//6 140//6 176//6
f 176//7 140//7 141//7 177//7
f 132//8 131//8 149//8 150//8
f 177//9 141//9 142//9 178//9
f 178//10 142//10 135//10 170//10
f 125//11 126//11 134//11 135//11
f 126//11 127//11 136//11 134//11
f 127//11 128//11 137//11 136//11
f 128//11 129//11 138//11 137//11
f 129//11 130//11 139//11 138//11
f 130//11 131//11 140//11 139//11
f 131//11 132//11 141//11 140//11
f 132//11 133//11 142//11 141//11
f 133//11 125//11 135//11 142//11
f 143//11 144//11 151//11 150//11 149//11 148//11 147//11 146//11 145//11
f 129//12 128//12 146//12 147//12
f 126//13 125//13 144//13 143//13
f 133//14 132//14 150//14 151//14
f 130//15 129//15 147//15 148//15
f 127//16 126//16 143//16 145//16
f 125//17 133//17 151//17 144//17
f 131//18 130//18 148//18 149//18
f 128//19 127//19 145//19 146//19
f 160//20 152//20 153//20 154//20 155//20 156//20 157//20 158//20 159//20
f 160//21 169//21 161//21 152//21
f 159//22 168//22 169//22 160//22
f 158//23 167//23 168//23 159//23
f 157//24 166//24 167//24 158//24
f 156//25 165//25 166//25 157//25
f 155//26 164//26 165//26 156//26
f 154//27 163//27 164//27 155//27
f 153//28 162//28 163//28 154//28
f 152//29 161//29 162//29 153//29
f 169//30 178//30 170//30 161//30
f 168//31 177//31 178//31 169//31
f 167//32 176//32 177//32 168//32
f 166//33 175//33 176//33 167//33
f 165//34 174//34 175//34 166//34
f 164//35 173//35 174//35 165//35
f 163//36 172//36 173//36 164//36
f 162//37 171//37 172//37 163//37
f 161//38 170//38 171//38 162//38
usemtl Material.010
f 1//39 96//39 56//39
f 3//40 97//40 50//40
f 40//41 89//41 6//41
f 3//42 88//42 7//42
f 17//43 103//43 79//43
f 19//44 123//44 22//44
f 22//45 84//45 71//45
f 26//46 101//46 78//46
f 27//47 88//47 74//47
f 28//48 89//48 39//48
f 30//49 98//49 77//49
f 32//50 102//50 76//50
f 34//51 118//51 8//51
f 107//52 1//52 56//52 104//52
f 36//53 117//53 64//53
f 41//54 60//54 5//54
f 46//55 112//55 4//55
f 48//56 111//56 54//56
f 49//57 111//57 48//57
f 50//58 97//58 49//58
f 51//59 107//59 110//59
f 110//60 50//60 51//60
f 54//61 106//61 96//61
f 59//62 105//62 58//62
f 51//63 109//63 107//63
f 105//64 43//64 2//64 60//64
f 1//65 107//65 109//65
f 110//66 37//66 3//66 50//66
f 43//67 114//67 2//67
f 115//68 73//68 4//68 92//68
f 37//69 88//69 3//69
f 73//70 106//70 4//70
f 4//71 112//71 92//71
f 90//72 5//72 2//72 114//72
f 5//73 60//73 2//73
f 40//74 6//74 75//74 108//74
f 5//75 90//75 116//75
f 117//76 75//76 6//76 89//76
f 113//77 72//77 8//77 86//77
f 7//78 97//78 3//78
f 7//79 88//79 119//79
f 72//80 111//80 8//80
f 8//81 118//81 86//81
f 120//82 85//82 9//82 66//82
f 9//83 98//83 66//83
f 67//84 10//84 18//84 99//84
f 9//85 85//85 123//85
f 121//86 83//86 10//86 67//86
f 124//87 18//87 10//87 83//87
f 99//88 82//88 11//88 68//88
f 11//89 100//89 68//89
f 100//90 81//90 12//90 69//90
f 11//91 82//91 79//91
f 12//92 101//92 69//92
f 122//93 80//93 13//93 70//93
f 12//94 81//94 103//94
f 13//95 102//95 70//95
f 84//96 80//96 14//96 71//96
f 13//97 80//97 84//97
f 122//98 78//98 15//98 14//98
f 80//99 122//99 14//99
f 14//100 103//100 71//100
f 101//101 12//101 15//101 78//101
f 14//102 15//102 12//102 103//102
f 103//103 81//103 16//103 79//103
f 11//104 16//104 81//104 100//104
f 79//105 82//105 18//105 17//105
f 16//106 11//106 79//106
f 17//107 19//107 22//107 103//107
f 18//108 82//108 99//108
f 18//109 124//109 17//109
f 19//110 17//110 124//110
f 124//111 83//111 20//111 19//111
f 77//112 21//112 20//112 121//112
f 83//113 121//113 20//113
f 20//114 123//114 19//114
f 98//115 9//115 21//115 77//115
f 20//116 21//116 9//116 123//116
f 123//117 85//117 23//117 84//117
f 22//118 123//118 84//118
f 22//119 71//119 103//119
f 76//120 24//120 23//120 120//120
f 85//121 120//121 23//121
f 102//122 13//122 24//122 76//122
f 23//123 24//123 13//123 84//123
f 102//124 61//124 25//124 70//124
f 61//125 113//125 25//125
f 25//126 122//126 70//126
f 118//127 87//127 25//127 86//127
f 25//128 113//128 86//128
f 122//129 87//129 26//129 78//129
f 87//130 122//130 25//130
f 87//131 118//131 26//131
f 101//132 65//132 27//132 69//132
f 65//133 119//133 27//133
f 27//134 100//134 69//134
f 100//135 64//135 28//135 68//135
f 27//136 119//136 88//136
f 74//137 100//137 27//137
f 64//138 117//138 28//138
f 28//139 99//139 68//139
f 99//140 63//140 29//140 67//140
f 28//141 117//141 89//141
f 39//142 99//142 28//142
f 63//143 116//143 29//143
f 29//144 121//144 67//144
f 114//145 91//145 29//145 90//145
f 29//146 116//146 90//146
f 121//147 91//147 30//147 77//147
f 91//148 121//148 29//148
f 91//149 114//149 30//149
f 98//150 62//150 31//150 66//150
f 62//151 115//151 31//151
f 31//152 120//152 66//152
f 112//153 93//153 31//153 92//153
f 31//154 115//154 92//154
f 120//155 93//155 32//155 76//155
f 93//156 120//156 31//156
f 93//157 112//157 32//157
f 34//158 33//158 26//158 118//158
f 119//159 65//159 33//159 34//159
f 26//160 33//160 65//160 101//160
f 35//161 34//161 8//161 111//161
f 97//162 7//162 35//162 49//162
f 35//163 119//163 34//163
f 35//164 111//164 49//164
f 74//165 36//165 64//165 100//165
f 7//166 119//166 35//166
f 74//167 88//167 36//167
f 36//168 37//168 38//168 117//168
f 37//169 36//169 88//169
f 37//170 110//170 38//170
f 108//171 75//171 38//171 52//171
f 38//172 110//172 52//172
f 116//173 63//173 39//173 94//173
f 75//174 117//174 38//174
f 39//175 89//175 94//175
f 94//176 40//176 41//176 116//176
f 63//177 99//177 39//177
f 40//178 94//178 89//178
f 40//179 108//179 41//179
f 95//180 42//180 30//180 114//180
f 5//181 116//181 41//181
f 115//182 62//182 42//182 95//182
f 30//183 42//183 62//183 98//183
f 95//184 43//184 44//184 115//184
f 43//185 95//185 114//185
f 43//186 105//186 44//186
f 106//187 73//187 44//187 59//187
f 44//188 105//188 59//188
f 46//189 45//189 32//189 112//189
f 73//190 115//190 44//190
f 113//191 61//191 45//191 46//191
f 32//192 45//192 61//192 102//192
f 47//193 46//193 4//193 106//193
f 111//194 72//194 47//194 54//194
f 47//195 113//195 46//195
f 47//196 106//196 54//196
f 1//197 48//197 54//197 96//197
f 72//198 113//198 47//198
f 108//199 53//199 57//199 41//199
f 1//200 109//200 48//200
f 49//201 48//201 109//201
f 49//202 109//202 50//202
f 50//203 109//203 51//203
f 52//204 110//204 107//204
f 53//205 52//205 107//205
f 53//206 107//206 104//206
f 53//207 108//207 52//207
f 57//208 53//208 104//208
f 57//209 60//209 41//209
f 56//210 58//210 57//210 104//210
f 55//211 96//211 106//211
f 56//212 96//212 55//212
f 57//213 105//213 60//213
f 58//214 56//214 55//214
f 58//215 105//215 57//215
f 59//216 58//216 55//216
f 55//217 106//217 59//217
