# Blender v2.78 (sub 0) OBJ File: 'rocks.blend'
# www.blender.org
mtllib rock04.mtl
o Cube_Cube.002
v 156.729752 1.798489 -10.537476
v 157.930344 -0.633655 -23.012951
v 156.028976 -3.694796 -21.777031
v 154.729034 -2.992576 -22.176174
v 152.652542 -1.214461 -19.192940
v 152.777130 0.724653 -20.108398
v 156.654099 1.758214 -10.513609
v 159.382843 -0.661148 -17.559645
v 156.931091 2.003790 -10.701709
v 159.009369 2.931678 -14.361403
v 153.364258 4.138543 -15.905911
v 156.553055 5.297554 -14.169811
v 154.893036 0.497388 -23.718681
v 157.441345 0.416775 -23.513079
v 154.673370 1.101109 -23.552725
v 155.632477 5.331536 -18.839119
v 156.639603 3.449161 -22.652248
v 156.090546 3.544115 -22.672667
v 156.730148 1.767064 -10.528698
v 156.662628 1.718526 -10.503855
v 157.829590 1.500410 -11.204025
v 157.196167 1.795620 -10.778667
v 157.771957 -3.606477 -15.561149
v 158.260620 -3.093593 -15.138333
v 155.005341 -1.171638 -11.223658
v 156.194244 0.213085 -10.630960
v 157.523651 -1.464136 -11.794647
v 157.523682 -1.467496 -11.796554
v 156.444000 -2.173717 -12.022645
v 154.167206 2.835700 -12.193855
v 153.429108 4.064883 -14.771049
v 153.986572 4.193358 -13.629104
v 152.986908 -0.616648 -14.796400
v 154.906204 -1.124787 -11.291071
v 153.268692 1.065684 -12.844632
v 153.454697 1.087002 -12.447218
v 158.051239 4.868431 -15.497129
v 156.953430 5.530412 -14.939437
v 156.258224 5.526588 -18.132225
v 157.081253 4.973326 -19.027918
vn -0.8452 -0.3384 0.4137
vn 0.4716 -0.2189 0.8542
vn 0.1575 0.2675 0.9506
vn 0.0607 -0.4059 -0.9119
vn 0.1706 0.9007 -0.3996
vn 0.1387 -0.4880 0.8618
vn -0.8540 -0.1762 -0.4894
vn 0.4460 0.2496 0.8595
vn 0.4742 0.8742 -0.1043
vn -0.1591 0.7071 0.6889
vn 0.0861 0.2931 -0.9522
vn -0.7494 0.5613 -0.3512
vn 0.9464 -0.1542 0.2837
vn 0.7891 -0.5761 -0.2131
vn 0.4119 -0.7804 0.4705
vn -0.3794 0.9217 0.0815
vn -0.9936 0.0935 0.0629
vn -0.8706 0.2980 0.3915
vn -0.5293 0.0935 0.8433
vn -0.5058 -0.8488 0.1539
vn 0.6192 0.6020 0.5042
vn 0.9185 0.3119 -0.2431
usemtl Material.004
s off
f 36//1 35//1 33//1 34//1
f 26//2 27//2 21//2 22//2 19//2 20//2
f 20//3 19//3 1//3 7//3
f 13//4 14//4 2//4 3//4 4//4
f 40//5 17//5 18//5 16//5 39//5
f 28//6 27//6 26//6 25//6 29//6
f 13//7 4//7 5//7 6//7 15//7
f 19//8 22//8 9//8 1//8
f 37//9 40//9 39//9 38//9
f 32//10 30//10 7//10 1//10 9//10 12//10
f 15//11 18//11 17//11 14//11 13//11
f 6//12 11//12 16//12 18//12 15//12
f 28//13 24//13 8//13 10//13 21//13 27//13
f 8//14 24//14 23//14 3//14 2//14
f 24//15 28//15 29//15 23//15
f 38//16 39//16 16//16 11//16 31//16 32//16 12//16
f 33//17 35//17 31//17 11//17 6//17 5//17
f 31//18 35//18 36//18 30//18 32//18
f 7//19 30//19 36//19 34//19 25//19 26//19 20//19
f 5//20 4//20 3//20 23//20 29//20 25//20 34//20 33//20
f 22//21 21//21 10//21 37//21 38//21 12//21 9//21
f 14//22 17//22 40//22 37//22 10//22 8//22 2//22
