# Blender v2.78 (sub 0) OBJ File: 'rocks.blend'
# www.blender.org
mtllib rock02.mtl
o Cube.002_Cube.004
v 187.878143 -11.163672 25.123674
v 187.676880 -11.208055 25.045412
v 188.413712 -10.827512 25.535105
v 193.942291 -1.775215 28.250570
v 178.925400 1.696078 30.839062
v 187.408081 -3.282894 32.380383
v 187.879196 -11.172881 25.065498
v 187.699570 -11.216247 24.972330
v 190.803894 -9.314970 24.791834
v 189.118851 -10.539668 25.189362
v 190.650558 4.121992 17.034405
v 191.950470 2.810658 17.817816
v 183.290939 -8.120212 20.069857
v 186.453598 -10.243482 22.345997
v 189.990051 -6.520639 19.719852
v 189.990112 -6.514278 19.714468
v 187.117996 -5.628119 18.531261
v 181.061371 -7.330879 27.444813
v 179.097916 -1.202677 30.375774
v 180.580841 -4.206264 30.268051
v 177.921585 0.867232 22.100033
v 183.027206 -7.966205 20.172527
v 178.671188 -4.892675 24.504002
v 179.165970 -5.927955 24.425121
v 191.393509 0.328067 32.010544
v 188.473160 -1.395369 33.018185
v 190.084015 6.087737 17.238146
v 178.673721 3.680169 30.064407
v 194.719666 5.890418 24.010571
v 193.834076 6.098316 20.981602
v 180.654587 3.720204 31.690611
v 177.654572 4.351887 22.169731
v 187.220520 4.189634 33.648083
v 190.180664 4.592138 32.584690
vn -0.7723 -0.3276 -0.5442
vn 0.4354 -0.7571 -0.4870
vn 0.1540 -0.9755 0.1572
vn 0.1139 -0.6426 -0.7577
vn 0.4375 -0.8860 0.1537
vn -0.1330 -0.6756 0.7251
vn -0.6223 0.2149 0.7527
vn 0.6805 0.2669 -0.6824
vn 0.3017 -0.2505 -0.9199
vn -0.8418 -0.4274 0.3298
vn -0.5225 -0.8500 -0.0670
vn -0.3676 -0.0096 -0.9299
vn 0.5378 -0.5261 0.6588
vn 0.8580 0.1792 0.4814
vn 0.3415 -0.0294 0.9394
vn -0.2706 -0.1676 0.9480
vn 0.9239 -0.2527 -0.2875
vn -0.9896 -0.0782 0.1211
vn -0.0998 0.9903 0.0971
usemtl Material.004
s off
f 24//1 23//1 21//1 22//1
f 14//2 15//2 9//2 10//2 7//2 8//2
f 8//3 7//3 1//3 2//3
f 16//4 15//4 14//4 13//4 17//4
f 7//5 10//5 3//5 1//5
f 20//6 18//6 2//6 1//6 3//6 6//6
f 28//7 5//7 31//7
f 30//8 12//8 11//8 27//8
f 12//9 16//9 17//9 11//9
f 19//10 23//10 24//10 18//10 20//10
f 2//11 18//11 24//11 22//11 13//11 14//11 8//11
f 32//12 27//12 11//12 17//12 13//12 22//12 21//12
f 10//13 9//13 4//13 25//13 26//13 6//13 3//13
f 29//14 34//14 25//14 4//14
f 25//15 34//15 33//15 26//15
f 26//16 33//16 31//16 5//16 19//16 20//16 6//16
f 16//17 12//17 30//17 29//17 4//17 9//17 15//17
f 21//18 23//18 19//18 5//18 28//18 32//18
f 31//19 33//19 34//19 29//19 30//19 27//19 32//19 28//19
