# Blender v2.78 (sub 0) OBJ File: 'rocks.blend'
# www.blender.org
mtllib rock01.mtl
o Cube.004_Cube.001
v 2.098778 6.554717 1.736340
v 1.736198 6.591078 1.689827
v 3.293785 6.282313 1.511122
v 13.882607 -1.011302 1.817057
v -3.612175 -3.766467 -16.128809
v 9.684196 0.208170 -11.150463
v 2.034157 6.562240 1.837202
v 1.684135 6.597761 1.835760
v 5.699135 5.062399 4.936497
v 3.860100 6.049948 2.738878
v -3.335838 -5.716090 18.122946
v -0.676277 -4.667643 17.945929
v -9.882607 4.132637 6.293060
v -2.993462 5.825247 5.226685
v -1.169518 2.830586 12.916586
v -1.175560 2.825488 12.925886
v -6.426949 2.123666 12.376219
v -4.545387 3.488099 -8.378611
v -3.898872 -1.436892 -15.177973
v -1.999245 0.972678 -13.659825
v -14.896095 -3.078668 -2.020916
v -10.125038 4.009367 5.879629
v -11.138680 1.541880 -5.476139
v -10.553551 2.372548 -4.895857
v 14.680183 -2.702744 -6.932415
v 11.854057 -1.312572 -11.288490
v -3.878304 -7.294428 17.263685
v -4.836937 -5.358222 -15.024499
v 10.115334 -7.162992 9.798613
v 5.472145 -7.321035 14.205091
v -0.296501 -5.399180 -16.036936
v -15.185631 -5.877870 -2.380661
v 10.856407 -5.797940 -13.496497
v 13.675423 -6.126789 -9.008906
vn -0.7959 0.6025 -0.0599
vn 0.0935 0.9351 0.3420
vn 0.1010 0.9948 -0.0095
vn -0.1620 0.9059 0.3912
vn 0.2349 0.9691 0.0753
vn 0.1396 0.9184 -0.3701
vn -0.1981 -0.4512 -0.8701
vn 0.2624 -0.5294 0.8068
vn -0.1588 0.5422 0.8251
vn -0.4501 0.7023 -0.5515
vn -0.2561 0.9571 -0.1352
vn -0.8656 0.0253 0.5001
vn 0.5661 0.8174 -0.1064
vn 0.9190 -0.3630 0.1540
vn 0.8470 0.0710 -0.5269
vn 0.2176 0.3917 -0.8940
vn 0.5979 0.4733 0.6470
vn -0.7672 0.1592 -0.6214
vn -0.0222 -0.9980 -0.0592
usemtl Material.004
s off
f 24//1 23//1 21//1 22//1
f 14//2 15//2 9//2 10//2 7//2 8//2
f 8//3 7//3 1//3 2//3
f 16//4 15//4 14//4 13//4 17//4
f 7//5 10//5 3//5 1//5
f 20//6 18//6 2//6 1//6 3//6 6//6
f 28//7 5//7 31//7
f 30//8 12//8 11//8 27//8
f 12//9 16//9 17//9 11//9
f 19//10 23//10 24//10 18//10 20//10
f 2//11 18//11 24//11 22//11 13//11 14//11 8//11
f 32//12 27//12 11//12 17//12 13//12 22//12 21//12
f 10//13 9//13 4//13 25//13 26//13 6//13 3//13
f 29//14 34//14 25//14 4//14
f 25//15 34//15 33//15 26//15
f 26//16 33//16 31//16 5//16 19//16 20//16 6//16
f 16//17 12//17 30//17 29//17 4//17 9//17 15//17
f 21//18 23//18 19//18 5//18 28//18 32//18
f 31//19 33//19 34//19 29//19 30//19 27//19 32//19 28//19
