# Blender v2.78 (sub 0) OBJ File: 'rocks.blend'
# www.blender.org
mtllib rock03.mtl
o Cube.001_Cube.003
v 184.557190 6.077110 -24.768873
v 182.497452 5.311287 -27.122162
v 181.089218 5.608546 -26.568506
v 178.839767 2.161661 -25.643764
v 178.974747 2.786158 -24.137209
v 186.130661 0.347787 -25.440231
v 181.266876 6.621972 -23.869610
v 184.027466 6.419839 -23.952259
v 181.028931 6.342206 -23.454443
v 182.067917 0.648263 -20.969492
v 183.158920 4.985954 -21.870205
v 182.564133 4.990868 -21.799347
v 182.745789 -0.129040 -20.913410
v 183.637360 0.909242 -21.205034
v 184.154892 -0.439565 -27.718216
v 179.508286 -1.419997 -22.494987
v 186.042664 -0.519919 -24.960287
v 185.682022 -0.435257 -26.193771
v 180.314957 -1.403694 -21.832750
v 179.093262 -1.146454 -25.709930
v 182.988800 -1.212528 -21.035610
v 184.194244 -1.048617 -21.468655
vn 0.0577 0.9334 -0.3543
vn 0.1179 0.1734 0.9778
vn -0.8460 0.5151 -0.1377
vn 0.3415 -0.0294 0.9394
vn 0.0766 0.8060 0.5870
vn 0.9239 -0.2527 -0.2875
vn -0.2706 -0.1676 0.9480
vn -0.9896 -0.0782 0.1211
vn 0.8580 0.1792 0.4814
vn -0.6223 0.2149 0.7527
vn 0.6805 0.2669 -0.6824
vn -0.3676 -0.0096 -0.9299
vn 0.0998 -0.9903 -0.0971
usemtl Material.004
s off
f 7//1 8//1 1//1 2//1 3//1
f 14//2 11//2 12//2 10//2 13//2
f 7//3 3//3 4//3 5//3 9//3
f 22//4 14//4 13//4 21//4
f 9//5 12//5 11//5 8//5 7//5
f 17//6 18//6 6//6
f 21//7 13//7 10//7 19//7
f 20//8 16//8 5//8 4//8
f 8//9 11//9 14//9 22//9 17//9 6//9 1//9
f 5//10 16//10 19//10 10//10 12//10 9//10
f 6//11 18//11 15//11 2//11 1//11
f 4//12 3//12 2//12 15//12 20//12
f 21//13 19//13 16//13 20//13 15//13 18//13 17//13 22//13
