# Blender v2.77 (sub 0) OBJ File: 'Wave.blend'
# www.blender.org
o Wave_Cube
v 8.000000 0.000000 -1.000000
v 8.000000 0.000000 1.000000
v -8.000001 0.000000 1.000000
v -7.999997 0.000000 -1.000000
v 8.000004 1.900000 0.100000
v 7.999995 2.000000 0.800000
v -8.000003 2.000000 0.800000
v -7.999999 1.900000 0.100000
v 8.000001 0.500000 -0.675848
v 8.000002 1.000000 -0.558862
v 8.000003 1.500000 -0.375848
v 7.999999 0.500000 0.374152
v 7.999998 1.000000 0.241138
v 7.999996 1.500000 0.374152
v -8.000002 0.500000 0.374152
v -8.000002 1.000000 0.241138
v -8.000002 1.500000 0.374152
v -7.999997 0.500000 -0.675848
v -7.999998 1.000000 -0.558862
v -7.999998 1.500000 -0.375848
vt 0.9999 0.5820
vt 0.0001 0.5832
vt 0.0001 0.4595
vt 0.9999 0.4582
vt 0.9999 0.3433
vt 0.0001 0.3446
vt 0.9999 0.8737
vt 0.9999 0.9780
vt 0.0001 0.9792
vt 0.0001 0.8750
vt 0.9999 0.6907
vt 0.0001 0.6920
vt 0.9999 0.7839
vt 0.0001 0.7851
vt 0.9999 0.0222
vt 0.9999 0.1623
vt 0.0001 0.1635
vt 0.0001 0.0234
vt 0.9999 0.2528
vt 0.0001 0.2541
vn 0.0000 0.9129 -0.4082
vn 0.0000 0.4826 0.8758
vn 0.0000 -0.4642 0.8857
vn 0.0000 0.3917 -0.9201
vn 0.0000 0.5440 -0.8391
vn 0.0000 0.5739 -0.8189
vn 0.0000 0.2863 -0.9581
vn 0.0000 0.7813 0.6242
vn 0.0000 0.5466 0.8373
vn 0.0000 0.0000 1.0000
s 1
f 5/1/1 8/2/1 7/3/2 6/4/2
f 14/5/3 6/4/2 7/3/2 17/6/3
f 9/7/4 1/8/5 4/9/5 18/10/4
f 5/1/1 11/11/6 20/12/6 8/2/1
f 11/11/6 10/13/7 19/14/7 20/12/6
f 10/13/7 9/7/4 18/10/4 19/14/7
f 2/15/8 12/16/9 15/17/9 3/18/8
f 12/16/9 13/19/10 16/20/10 15/17/9
f 13/19/10 14/5/3 17/6/3 16/20/10
